<svg xmlns="http://www.w3.org/2000/svg" viewBox="-35 0 592 592" fill="#000000">
  <path d="M269.104 74.446C270.005 74.8824 297.35 121.433 300.018 125.919L410.4 311.638L450.206 378.233C456.74 389.223 465.062 402.631 471.047 413.782C470.341 415.597 466.377 421.954 465.23 423.877L452.366 445.448L422.94 495.032C416.578 505.589 410.31 516.203 404.139 526.873C400.924 522.391 397.955 517.229 395.126 512.458L381.157 488.631L337.59 415.423L201.942 187.601C203.343 184.41 208.829 175.505 210.883 172.03L229.523 140.799L255.195 97.529C259.557 90.1807 264.458 81.5268 269.104 74.446Z"/>
  <path d="M134.967 300.459L269.345 300.478C265.699 306.321 261.91 313.018 258.324 318.998L220.12 383.282C214.096 393.422 208.227 403.691 201.976 413.692C206.829 422.767 214.289 434.531 219.751 443.663L246.368 488.431C249.481 493.578 267.999 523.216 268.644 526.487L268.156 526.801C262.022 527.221 250.835 526.872 244.358 526.866L197.772 526.852L157.252 526.889C150.878 526.902 140.559 527.234 134.586 526.682C130.038 520.054 125.468 511.656 121.349 504.604C114.527 492.897 107.63 481.233 100.658 469.615L78.3017 432.321C75.9249 428.35 69.286 417.833 67.5546 414.136C68.5038 410.444 80.3638 391.693 82.8525 387.528L105.447 349.468L123.745 318.622C125.401 315.821 133.367 301.828 134.967 300.459Z"/>
</svg>
